<?xml version="1.0" encoding="UTF-8" standalone="no"?>
<!-- Created with Inkscape (http://www.inkscape.org/) -->

<svg
   width="102.7035mm"
   height="104.16079mm"
   viewBox="0 0 102.7035 104.16079"
   version="1.1"
   id="svg5"
   sodipodi:docname="Logo.svg"
   inkscape:version="1.1.2 (0a00cf5339, 2022-02-04)"
   inkscape:export-filename="/home/david/Imágenes/Vectores/Logo.png"
   inkscape:export-xdpi="48.16"
   inkscape:export-ydpi="48.16"
   xmlns:inkscape="http://www.inkscape.org/namespaces/inkscape"
   xmlns:sodipodi="http://sodipodi.sourceforge.net/DTD/sodipodi-0.dtd"
   xmlns="http://www.w3.org/2000/svg"
   xmlns:svg="http://www.w3.org/2000/svg">
  <sodipodi:namedview
     id="namedview6"
     pagecolor="#ffffff"
     bordercolor="#666666"
     borderopacity="1.0"
     inkscape:pageshadow="2"
     inkscape:pageopacity="0.0"
     inkscape:pagecheckerboard="0"
     inkscape:document-units="mm"
     showgrid="false"
     inkscape:zoom="1.1267327"
     inkscape:cx="80.320736"
     inkscape:cy="201.91124"
     inkscape:window-width="1680"
     inkscape:window-height="932"
     inkscape:window-x="0"
     inkscape:window-y="0"
     inkscape:window-maximized="1"
     inkscape:current-layer="svg5"
     fit-margin-top="0"
     fit-margin-left="0"
     fit-margin-right="0"
     fit-margin-bottom="0" />
  <defs
     id="defs2" />
  <g
     id="layer1"
     transform="matrix(0.76015304,0,0,0.76015304,326.18489,-14.53912)"
     style="fill-opacity:1"
     inkscape:export-filename="/home/david/Imágenes/Vectores/favicon.png"
     inkscape:export-xdpi="48.16"
     inkscape:export-ydpi="48.16">
    <path
       id="path4217"
       style="fill-opacity:1;fill-rule:evenodd;stroke-width:0.294362"
       d="m -361.5624,19.12657 c -3.38879,7.62e-4 -6.77286,0.253047 -10.12431,0.754629 v 13.267842 c -4.75085,0.872712 -9.36727,2.362332 -13.73221,4.431045 l -7.75472,-10.673511 c -6.01978,3.133437 -11.54063,7.143886 -16.38163,11.899978 l 7.76219,10.683929 c -3.31914,3.508424 -6.16572,7.435364 -8.46764,11.681172 l -12.59062,-4.0902 c -3.0265,6.073994 -5.13379,12.563936 -6.2529,19.257276 l 12.5817,4.08722 c -0.32342,2.390864 -0.49047,4.800293 -0.50015,7.212914 0.01,2.412622 0.17673,4.82205 0.50015,7.212915 l -12.5817,4.088713 c 1.11911,6.693338 3.2264,13.183278 6.2529,19.257268 l 12.59062,-4.0902 c 2.302,4.24529 5.14865,8.17173 8.46764,11.67969 l -7.76219,10.68393 c 4.84093,4.75662 10.36178,8.76757 16.38163,11.90146 l 7.75625,-10.675 c 4.3644,2.06859 8.98036,3.55821 13.73068,4.43105 v 13.26784 c 3.35145,0.50208 6.73552,0.75481 10.12431,0.75612 3.38834,-0.002 6.77187,-0.25411 10.12279,-0.75612 v -13.26784 c 4.75138,-0.87258 9.36834,-2.3622 13.73373,-4.43105 l 7.75472,10.67351 c 6.01978,-3.13343 11.54063,-7.14387 16.38163,-11.89997 l -7.76364,-10.68393 c 3.31899,-3.50796 6.16565,-7.4344 8.46764,-11.67969 l 12.59207,4.0902 c 3.0265,-6.07399 5.13379,-12.56393 6.2529,-19.257268 l -12.5817,-4.088713 c 0.32342,-2.390865 0.49047,-4.800293 0.50015,-7.212915 -4.6e-4,-2.414527 -0.15851,-4.82644 -0.47333,-7.22036 l 12.58018,-4.088706 c -1.11896,-6.69385 -3.22625,-13.184303 -6.2529,-19.258761 l -12.58764,4.090199 c -2.30833,-4.247004 -5.16199,-8.174005 -8.48845,-11.681179 l 7.78002,-10.707744 c -4.84154,-4.756214 -10.36284,-8.766662 -16.38316,-11.89997 l -7.77704,10.704763 c -4.36425,-2.080243 -8.98182,-3.58089 -13.73518,-4.463791 v -13.23063 c -3.35092,-0.502001 -6.73445,-0.754736 -10.12279,-0.756115 z m 0.0122,31.873178 c 20.23552,-8.4e-5 36.63987,16.403611 36.64063,36.639116 7e-5,20.236086 -16.40457,36.640696 -36.64063,36.640616 -20.23605,8e-5 -36.6407,-16.40453 -36.64062,-36.640616 7.6e-4,-20.235505 16.4051,-36.6392 36.64062,-36.639116 z"
       sodipodi:nodetypes="cccccccccccccccccccccccccccccccccccccccccccccccccc" />
  </g>
</svg>
